<?xml version="1.0" encoding="UTF-8"?>
<svg width="1200pt" height="1200pt" version="1.1" viewBox="0 0 1200 1200" xmlns="http://www.w3.org/2000/svg">
 <g>
  <path d="m1121.4 582.12c-2.3984-3.1211-58.68-78.719-150-155.16-122.76-102.72-250.44-156.96-369.48-156.96-74.039 0-151.56 21.238-229.08 61.922l-0.12109-0.12109c-3.7188 1.9219-7.3203 4.1992-11.039 6.2383-4.8008 2.6406-9.6016 5.0391-14.398 7.9219l0.12109 0.12109c-38.52 22.32-77.039 49.199-115.08 81-91.32 76.441-147.6 152.04-150 155.16l-13.09 17.758 13.199 17.879c0.71875 0.96094 6.3594 8.6406 16.441 20.762l247.92-247.92 43.922 43.922-90.121 90.121c-6.3594 24.84-9.8398 50.762-9.8398 77.52 0 5.6406 0.12109 11.16 0.48047 16.68l64.199-64.199c10.078-52.078 36.48-98.281 73.68-133.44 1.3203-1.3203 2.8789-2.5195 4.1992-3.8398 4.3203-3.8398 8.5195-7.6797 13.078-11.16 42.359-33.359 95.641-53.398 153.72-53.398 137.52 0 249.36 111.84 249.36 249.36 0 57.961-20.039 111.36-53.398 153.72-2.5195 3.2383-5.2812 6.3594-8.0391 9.6016-1.9219 2.1602-3.8398 4.3203-5.7617 6.4805-28.441 30.48-64.199 53.879-104.64 67.199l-90.719 90.719c5.0391 0.23828 10.078 0.48047 15.121 0.48047 25.199 0 50.879-2.6406 76.68-7.4414l100.08-100.08 47.879 47.879c9.7188-5.0391 19.559-10.441 29.281-16.078l0.12109 0.12109c4.6797-2.7617 9.3594-5.6406 14.039-8.5195 3.4805-2.1602 7.0781-4.0781 10.559-6.3594 30.48-19.32 60.84-41.398 90.961-66.602 91.32-76.441 147.6-152.04 150-155.16l13.199-17.879zm-277.32 209.64c40.801-52.441 65.281-118.2 65.281-189.72 0-75-26.879-143.88-71.398-197.52 107.88 65.879 189.6 157.2 221.16 195.36-30.961 37.559-110.04 126.36-215.04 191.88z"/>
  <path d="m182.4 642.6-42.602 42.602c12.359 13.199 26.398 27.602 42.238 42.719l42.602-42.602c-15.836-15.121-29.996-29.641-42.238-42.719z"/>
  <path d="m228 769.32c1.4414 1.1992 2.8789 2.3984 4.3203 3.7188 14.281 12 28.68 23.16 43.078 33.84l43.078-43.078c-16.801-12.121-32.762-24.602-47.641-37.199z"/>
  <path d="m476.64 600c0 1.8008 0.23828 3.4805 0.23828 5.2812l42.238-42.238 43.922 43.922-63.84 63.84c11.762 16.559 27.359 30 45.719 39.121l60.602-60.602 44.641 44.641-26.52 26.52c24.719-4.9219 46.801-17.281 63.719-34.68l0.12109 0.12109c0.60156-0.60156 1.0781-1.1992 1.6797-1.9219 0.35938-0.35938 0.60156-0.71875 0.96094-1.0781 2.5195-2.7617 4.9219-5.5195 7.1992-8.5195 0.23828-0.35938 0.48047-0.71875 0.83984-1.0781 2.2812-3 4.3203-6.1211 6.3594-9.2383 0.12109-0.12109 0.23828-0.23828 0.35938-0.48047 11.398-18.602 18-40.441 18-63.84 0-67.922-55.078-123-123-123-23.398 0-45.238 6.7188-63.84 18-0.12109 0.12109-0.23828 0.23828-0.35937 0.23828-7.9219 4.9219-15.238 10.441-21.84 16.922l0.12109 0.12109c-23.039 22.551-37.32 53.508-37.32 87.949z"/>
  <path d="m374.52 707.76c-9.4805-20.281-16.32-41.879-20.16-64.68l-50.039 50.039c6.3594 20.879 15 40.68 25.441 59.398z"/>
  <path d="m408.6 761.64-80.762 80.762c18.121 11.281 36.238 21.359 54.359 30.48l70.441-70.441c-16.441-11.762-31.199-25.441-44.039-40.801z"/>
  <path d="m464.28 879.96-20.16 20.16c21.961 8.0391 43.801 14.52 65.398 19.441l69.238-69.238c-24.121-2.0391-47.16-7.5586-68.879-15.961z"/>
  <path d="m206.91 249.34 42.426-42.426 750.94 750.94-42.426 42.426z"/>
 </g>
</svg>
