<?xml version="1.0" encoding="UTF-8"?>
<svg width="1200pt" height="1200pt" version="1.1" viewBox="0 0 1200 1200" xmlns="http://www.w3.org/2000/svg">
 <g>
  <path d="m601.92 300c-273.6 0-495.48 300-495.48 300s221.76 300 495.36 300c273.6 0 495.36-300 495.36-300s-221.64-300-495.24-300zm-1.9219 533.16c-128.76 0-233.16-104.4-233.16-233.16s104.4-233.16 233.16-233.16 233.16 104.4 233.16 233.16-104.4 233.16-233.16 233.16z"/>
  <path d="m722.76 600c0 67.93-55.07 123-123 123-67.934 0-123-55.07-123-123s55.066-123 123-123c67.93 0 123 55.07 123 123"/>
 </g>
</svg>
