<?xml version="1.0" encoding="utf-8"?>
<svg viewBox="0 0 500 500" xmlns="http://www.w3.org/2000/svg">
  <rect x="211.063" y="123.528" width="305.838" height="305.838" style="" fill="none"/>
  <title>Artboard 51</title>
  <path d="M 281.445 56.783 C 227.886 45.005 172.27 64.483 137.774 107.107 L 172.228 141.56 C 215.977 81.48 308.357 91.292 338.514 159.222 C 341.783 166.591 344.119 174.338 345.465 182.29 C 351.898 220.118 335.098 258.125 302.804 278.835 C 278.186 294.765 259.662 321.073 247.895 357.277 C 247.075 359.731 246.084 362.133 244.938 364.456 C 238.923 377.114 227.608 386.462 214.045 389.98 C 183.452 397.877 153.644 374.749 153.704 343.154 L 153.704 314.797 C 206.254 333.376 259.216 288.103 249.03 233.297 C 238.844 178.495 173.153 155.27 130.789 191.493 C 114.67 205.268 105.409 225.413 105.433 246.612 L 105.433 343.154 C 105.433 396.479 148.654 439.7 201.978 439.7 C 209.822 439.681 217.635 438.751 225.266 436.925 C 252.801 429.992 275.858 411.237 288.261 385.694 C 290.393 381.364 292.232 376.886 293.754 372.3 C 302.142 346.655 313.725 329.337 329.054 319.383 C 422.427 258.482 414.861 119.337 315.434 68.924 C 304.638 63.45 293.199 59.348 281.384 56.722 L 281.445 56.783 Z M 177.841 222.475 C 196.42 222.475 208.027 242.589 198.743 258.679 C 189.451 274.772 166.226 274.772 156.939 258.679 C 154.816 255.011 153.704 250.848 153.704 246.612 C 153.704 233.283 164.513 222.475 177.841 222.475 Z" style=""/>
</svg>